<svg
              width="120"
              height="32"
              viewBox="0 0 363 77"
              fill="none"
              xmlns="http://www.w3.org/2000/svg"
            >
              <path
                d="M130.12 40.3371C130.12 32.4728 123.9 24.9502 113.682 24.9502C104.087 24.9502 96 31.7057 96 42.6459C96 53.0773 103.909 59.9999 114.66 59.9999C119.724 59.9999 124.879 58.3746 129.054 54.8697L126.655 51.2812C123.012 53.8444 119.191 55.3823 114.66 55.3823C108.44 55.3823 103.996 52.0482 102.398 46.9218L130.12 42.0497V40.3371ZM113.859 29.5678C119.724 29.5678 123.722 33.4981 124.523 38.203L101.687 42.3042C101.778 34.5272 107.106 29.5678 113.859 29.5678Z"
                fill="#1DB3A4"
              />
              <path
                d="M153.218 59.9164C158.104 59.9164 162.548 58.5456 166.637 55.2115L164.146 51.4521C161.305 53.7609 157.749 55.2988 153.928 55.2988C147.357 55.2988 141.046 51.023 141.046 42.4751C141.046 34.1854 147.357 29.6514 153.841 29.6514C157.749 29.6514 161.214 31.1931 163.882 33.3272L166.546 29.6514C162.903 26.7464 158.727 24.8667 153.218 24.8667C143.268 24.8667 135.003 31.7058 135.003 42.4751C135.003 53.7609 143.268 59.9164 153.218 59.9164Z"
                fill="#1DB3A4"
              />
              <path
                d="M189.378 60C199.687 60 207.861 53.59 207.861 42.4751C207.861 31.6184 199.509 24.8667 189.378 24.8667C178.895 24.8667 170.808 31.6184 170.808 42.4751C170.808 53.59 178.982 60 189.378 60ZM189.378 55.2988C182.183 55.2988 176.851 50.085 176.851 42.5624C176.851 34.9525 182.183 29.6514 189.378 29.6514C196.486 29.6514 201.818 34.869 201.818 42.5624C201.818 50.085 196.486 55.2988 189.378 55.2988Z"
                fill="#1DB3A4"
              />
              <path
                d="M241.178 8.27971V28.2007C238.246 26.0628 234.867 24.8666 230.782 24.8666C221.274 24.8666 212.832 31.6183 212.832 42.5624C212.832 53.5899 221.184 59.9163 230.782 59.9163C234.958 59.9163 238.778 58.5455 242.066 56.0696L243.396 59.3164H247.039V7L241.178 8.27971ZM218.875 42.6459C218.875 34.8689 224.471 29.6513 231.67 29.6513C235.313 29.6513 238.423 30.7639 241.178 32.9854V51.9647C238.155 54.0152 235.135 55.2987 231.67 55.2987C224.471 55.2987 218.875 50.085 218.875 42.6459Z"
                fill="#1DB3A4"
              />
              <path
                d="M271.738 60C282.047 60 290.221 53.59 290.221 42.4751C290.221 31.6184 281.869 24.8667 271.738 24.8667C261.255 24.8667 253.168 31.6184 253.168 42.4751C253.168 53.59 261.342 60 271.738 60ZM271.738 55.2988C264.543 55.2988 259.211 50.085 259.211 42.5624C259.211 34.9525 264.543 29.6514 271.738 29.6514C278.846 29.6514 284.178 34.869 284.178 42.5624C284.178 50.085 278.846 55.2988 271.738 55.2988Z"
                fill="#1DB3A4"
              />
              <path
                d="M312.432 30.5933V25.8922H302.391V13.9229L296.439 15.2899V50.9396C296.439 56.9243 300.347 60.0001 305.679 60.0001C308.165 60.0001 309.764 59.7457 311.721 58.7166L309.677 55.2116C308.966 55.4699 308.078 55.5534 307.009 55.5534C303.99 55.5534 302.391 53.7611 302.391 50.5978V30.5933H312.432Z"
                fill="#1DB3A4"
              />
              <path
                d="M330.023 59.9999C338.197 59.9999 344.061 56.2405 344.061 50.4267C344.061 38.1157 322.559 40.7662 322.559 34.0107C322.559 31.5348 325.934 29.6513 330.378 29.6513C334.64 29.6513 338.197 30.9348 340.951 33.0728L343.529 29.4805C340.505 26.8299 335.529 24.9502 330.378 24.9502C322.915 24.9502 316.517 28.626 316.517 34.0107C316.517 45.7256 338.106 42.3042 338.106 50.3394C338.106 53.3317 334.554 55.3823 329.932 55.3823C325.756 55.3823 321.849 54.0153 318.826 51.9647L316.339 55.5532C319.003 57.9493 324.513 59.9999 330.023 59.9999Z"
                fill="#1DB3A4"
              />
              <path
                d="M355.213 19.0952C350.516 19.0952 347.394 22.5318 347.394 26.8684C347.394 31.2012 350.516 34.6378 355.213 34.6378C359.847 34.6378 363 31.2012 363 26.8684C363 22.5318 359.847 19.0952 355.213 19.0952ZM355.213 32.6594C351.965 32.6594 349.644 30.2747 349.644 26.8684C349.644 23.4622 351.965 21.0774 355.213 21.0774C358.465 21.0774 360.75 23.4622 360.75 26.8684C360.75 30.2747 358.465 32.6594 355.213 32.6594ZM356.855 27.7039C357.917 27.3317 358.659 26.6216 358.659 25.5052C358.659 23.6786 357.111 22.6571 354.763 22.6571H351.803V30.8633H354.376V28.0456C355.15 28.7253 355.923 29.9329 356.243 30.8633H358.915C358.56 29.8418 357.786 28.3836 356.855 27.7039ZM354.763 24.6394C355.47 24.6394 356.081 24.947 356.081 25.5963C356.081 26.4014 355.47 26.7127 354.763 26.7127H354.376V24.6394H354.763Z"
                fill="#1DB3A4"
              />
              <mask
                id="mask0_203_4822"
                style="mask-type: luminance"
                maskUnits="userSpaceOnUse"
                x="50"
                y="27"
                width="26"
                height="23"
              >
                <path
                  d="M50.6522 27.1704H76V49.0292H50.6522V27.1704Z"
                  fill="white"
                />
              </mask>
              <g mask="url(#mask0_203_4822)">
                <path
                  d="M76 49.0292H50.5864V26.9458H76V49.0292Z"
                  fill="#FFDE59"
                />
              </g>
              <mask
                id="mask1_203_4822"
                style="mask-type: luminance"
                maskUnits="userSpaceOnUse"
                x="0"
                y="27"
                width="49"
                height="23"
              >
                <path d="M0 27.2759H48.9015V49.1744H0V27.2759Z" fill="white" />
              </mask>
              <g mask="url(#mask1_203_4822)">
                <path
                  d="M0 27.2759H49.1331V49.3593H0V27.2759Z"
                  fill="#1DB3A4"
                />
              </g>
              <mask
                id="mask2_203_4822"
                style="mask-type: luminance"
                maskUnits="userSpaceOnUse"
                x="27"
                y="27"
                width="22"
                height="50"
              >
                <path
                  d="M27.1004 27.2759H48.9411V76.1615H27.1004V27.2759Z"
                  fill="white"
                />
              </mask>
              <g mask="url(#mask2_203_4822)">
                <path
                  d="M48.9411 27.2759V76.539H26.9159V27.2759H48.9411Z"
                  fill="#1DB3A4"
                />
              </g>
              <mask
                id="mask3_203_4822"
                style="mask-type: luminance"
                maskUnits="userSpaceOnUse"
                x="27"
                y="0"
                width="22"
                height="26"
              >
                <path d="M27.1004 0H48.8997V25.4148H27.1004V0Z" fill="white" />
              </mask>
              <g mask="url(#mask3_203_4822)">
                <path
                  d="M48.8997 0V25.4809H26.8745V0H48.8997Z"
                  fill="#FFDE59"
                />
              </g>
            </svg>